<svg width="24" height="18" viewBox="0 0 24 18" fill="none" xmlns="http://www.w3.org/2000/svg">
<path d="M23.4619 14.2251L19.7556 11.445C19.0174 10.8937 17.7948 10.9105 17.0308 11.4835L15.1637 12.8839C15.0458 12.8349 14.9236 12.784 14.7952 12.73C13.6162 12.24 12.0022 11.5684 10.3038 10.2937C8.6006 9.01638 7.70394 7.80395 7.04883 6.91902C6.97929 6.82519 6.91318 6.73492 6.84791 6.64909L8.10115 5.71041L8.71716 5.24778C9.48245 4.67381 9.50365 3.75708 8.7668 3.20417L5.0604 0.423746C4.32402 -0.128537 3.10087 -0.111744 2.33559 0.462217L1.29097 1.25013L1.31976 1.27145C0.969574 1.60659 0.67661 1.99325 0.459109 2.41013C0.258193 2.80693 0.133094 3.18569 0.075876 3.56499C-0.413383 6.60805 1.44059 9.38901 6.47226 13.1631C13.4274 18.3791 19.0327 17.9852 19.2744 17.9658C19.8014 17.9187 20.3059 17.8243 20.8189 17.6748C21.37 17.5133 21.8852 17.2942 22.3316 17.0322L22.3545 17.0471L23.4127 16.27C24.1763 15.6961 24.1984 14.7794 23.4619 14.2251ZM22.5894 15.6519L22.123 16.0011L21.9372 16.135C21.6447 16.3471 21.1384 16.645 20.3991 16.8619C19.9794 16.9831 19.5656 17.0609 19.1445 17.0985C19.0916 17.1023 13.8196 17.4397 7.29464 12.5463C1.7467 8.38555 0.857624 5.98797 1.23031 3.66583C1.27699 3.35806 1.37994 3.04833 1.54448 2.72466C1.83614 2.16695 2.233 1.78757 2.51364 1.56785L3.15845 1.07945C3.46918 0.845776 3.95382 0.827918 4.2379 1.04098L7.94418 3.82069C8.22779 4.03402 8.2054 4.3975 7.89419 4.63188L5.39115 6.50729L5.62216 6.79889C5.75057 6.9614 5.88633 7.14354 6.03133 7.3414C6.71985 8.27271 7.66188 9.54751 9.48114 10.9107C11.2957 12.2723 12.9929 12.9782 14.2309 13.4933C14.4984 13.6042 14.7426 13.7063 14.9618 13.8042L15.3514 13.9775L17.8528 12.1008C18.1648 11.8678 18.6511 11.8506 18.9352 12.063L22.6398 14.8421C22.9231 15.0551 22.9006 15.4185 22.5894 15.6519Z" fill="#010002"/>
</svg>
