<svg width="18" height="18" viewBox="0 0 18 18" fill="none" xmlns="http://www.w3.org/2000/svg">
<g clip-path="url(#clip0_9601_112)">
<path d="M10.7141 0H7.28556C3.69454 0 0.77298 2.92087 0.77298 6.51121V9.5997C0.77298 12.2734 2.41595 14.6764 4.8864 15.655V17.6572C4.8864 17.793 4.96627 17.9157 5.09036 17.9705C5.13492 17.9904 5.18223 18 5.22919 18C5.31249 18 5.3951 17.9695 5.4592 17.9112L7.44701 16.1109H10.7141C14.3051 16.1109 17.2267 13.19 17.2267 9.5997V6.51121C17.2267 2.92087 14.3051 0 10.7141 0ZM16.5411 9.5997C16.5411 12.8119 13.9274 15.4253 10.7141 15.4253H7.3147C7.22968 15.4253 7.14776 15.4569 7.08469 15.5141L5.57197 16.8842V15.4175C5.57197 15.2721 5.48045 15.1425 5.34334 15.0946C3.01994 14.2729 1.45855 12.0647 1.45855 9.5997V6.51121C1.45855 3.29897 4.07263 0.685571 7.28556 0.685571H10.7141C13.9274 0.685571 16.5411 3.29897 16.5411 6.51121V9.5997Z" fill="black"/>
<path d="M13.5301 10.4526L11.4233 9.08417C11.193 8.93437 10.9187 8.88364 10.6503 8.93917C10.3816 8.99573 10.1505 9.15444 10.0008 9.38582L9.90169 9.53802C8.98988 9.23671 7.98449 8.85176 7.38256 7.10938L7.63176 6.89274C8.05956 6.52082 8.10446 5.87021 7.73254 5.44173L6.08443 3.54579C5.96034 3.40284 5.7437 3.3881 5.60076 3.51185L4.56589 4.41132C3.6582 5.20041 4.08222 6.36759 4.22173 6.75117C4.22791 6.76831 4.23545 6.78476 4.24436 6.80088C4.28035 6.86532 5.13971 8.39894 6.52765 9.81259C7.92107 11.2321 10.4368 12.5429 10.5139 12.5809C10.8012 12.7674 11.1244 12.8569 11.4442 12.8569C12.0057 12.8569 12.5562 12.5816 12.8846 12.077L13.6312 10.9273C13.734 10.7679 13.6888 10.5557 13.5301 10.4526ZM12.3094 11.7034C12.0006 12.1792 11.3623 12.3142 10.8584 11.9893C10.8334 11.9762 8.33413 10.6747 7.01681 9.33269C5.78552 8.07844 4.96798 6.68501 4.85657 6.49065C4.58509 5.72933 4.63308 5.26143 5.01563 4.92892L5.79203 4.25432L7.21528 5.89147C7.34177 6.03681 7.32703 6.24933 7.18237 6.37514L6.76177 6.74054C6.65928 6.82967 6.61883 6.97055 6.65894 7.10013C7.37605 9.43038 8.7705 9.888 9.78857 10.2222L9.93699 10.2712C10.0854 10.3213 10.2479 10.264 10.3329 10.1331L10.5759 9.75877C10.626 9.6813 10.7028 9.62885 10.7919 9.61C10.8814 9.59081 10.9725 9.60863 11.05 9.65902L12.8695 10.8406L12.3094 11.7034Z" fill="black"/>
<path d="M9.78242 5.56933C9.60006 5.51689 9.4105 5.62281 9.35874 5.80517C9.30698 5.98719 9.41255 6.17675 9.59457 6.22851C10.1053 6.37385 10.5122 6.78142 10.6562 7.29251C10.6987 7.44334 10.8361 7.54241 10.9859 7.54241C11.0168 7.54241 11.048 7.53829 11.0792 7.52972C11.2612 7.4783 11.3675 7.28909 11.316 7.10673C11.108 6.36837 10.5201 5.77912 9.78242 5.56933Z" fill="black"/>
<path d="M12.391 7.61625C12.4219 7.61625 12.4531 7.61214 12.4842 7.60357C12.6666 7.55215 12.7725 7.36259 12.7211 7.18057C12.3166 5.7467 11.1755 4.60317 9.74265 4.19526C9.56063 4.14281 9.37107 4.24942 9.31931 4.43144C9.26755 4.61345 9.37313 4.80301 9.55514 4.85478C10.7607 5.19756 11.7209 6.16044 12.0612 7.36671C12.1041 7.51753 12.2412 7.61625 12.391 7.61625Z" fill="black"/>
<path d="M9.59489 2.59912C9.41253 2.54667 9.22297 2.65259 9.17121 2.8353C9.11945 3.01731 9.22502 3.20687 9.40704 3.25864C11.4497 3.83966 13.0769 5.47063 13.6535 7.51466C13.696 7.66548 13.8334 7.76455 13.9832 7.76455C14.0141 7.76455 14.0453 7.76043 14.0765 7.75187C14.2585 7.70045 14.3647 7.51089 14.3133 7.32887C13.6727 5.05723 11.8648 3.24527 9.59489 2.59912Z" fill="black"/>
</g>
<defs>
<clipPath id="clip0_9601_112">
<rect width="18" height="18" fill="white"/>
</clipPath>
</defs>
</svg>
